<?xml version="1.0" encoding="UTF-8"?><svg id="a" xmlns="http://www.w3.org/2000/svg" viewBox="0 0 1854.27 301.38"><path d="M1741.29,54.51c-236.76,160.62-233.31-136.48-491.86,13.45-297.95,172.78-359.83-180.05-677.9,4.39C337.3,208.17,250.81-118.27,0,54.3V247.16c73.84,44.86,150.27,91.76,298.33,7.69,78.61-44.63,130.86-42,158.98-41.45,164.15,3.2,140.33,122.98,388.29,66.41,88.02-20.08,174.51-83.22,247.35-81.89,101.71,1.85,151.67,34.35,232.31,75.88,120.08,61.83,185.1-75.95,283.09-75.95,48.99,0,88.03,17.76,133.84,49.25,63.56,43.7,112.09,50.1,112.09,50.1V0c-73.16,22.08-98.46,44.66-112.98,54.51Z" style="fill:#c9caff;"/></svg>